:version 1.10
:name ASF
:units
  mass 1
  length 1
  angle deg
:documentation
  ASF file generated by Kaydara
:root
  axis xyz
  order  tx ty tz rx ry rz
  position 0 0 0
  orientation 0 0 0
:bonedata
  begin
    id 1
    name RightUpLegDummy
    direction -0.65628 -0.754516 0.00165102
    length 4.76918
    axis 0 0 0 xyz
  end
  begin
    id 2
    name RightUpLeg
    direction -0.145584 -0.923362 0.355256
    length 17.9961
    axis -24.7611 -13.1006 1.78531 xyz
    dof rx ry rz
  end
  begin
    id 3
    name RightLeg
    direction 0.263379 0.172355 -0.949171
    length 13.3386
    axis 89.6202 -21.1929 12.3855 xyz
    dof rx ry rz
  end
  begin
    id 4
    name RightFoot
    direction 0.224283 -0.968777 -0.105675
    length 5.86697
    axis 56.995 -39.6905 17.3365 xyz
    dof rx ry rz
  end
  begin
    id 5
    name RightToes
    direction -0.0806345 -0.9037 0.420506
    length 4.75197
    axis 146.825 -39.7828 17.6019 xyz
    dof rx ry rz
  end
  begin
    id 6
    name SpineDummy
    direction -3.39852e-014 1 9.33296e-014
    length 8.13779
    axis 0 0 0 xyz
  end
  begin
    id 7
    name Spine
    direction -0.156609 0.733703 0.661176
    length 7.14978
    axis 41.2365 5.68757 17.0844 xyz
    dof rx ry rz
  end
  begin
    id 8
    name Spine1
    direction 0 0 0
    length 0
    axis 42.8809 47.8308 -3.36039 xyz
    dof rx ry rz
  end
  begin
    id 9
    name HEadDummy
    direction 0.546431 0.701947 0.456819
    length 3.55512
    axis 42.8809 47.8308 -3.36039 xyz
  end
  begin
    id 10
    name HEad
    direction 0.23444 0.828559 0.508457
    length 7.35827
    axis 51.1864 49.2662 27.4903 xyz
    dof rx ry rz
  end
  begin
    id 11
    name LeftShoulder1Dummy
    direction 0.431183 0.475873 -0.766568
    length 2.49352
    axis 42.8809 47.8308 -3.36039 xyz
  end
  begin
    id 12
    name LeftShoulder1
    direction 0.268187 -0.383402 -0.883786
    length 4.48604
    axis -119.517 0.106469 35.1736 xyz
    dof rx ry rz
  end
  begin
    id 13
    name LeftArm
    direction 0.380567 -0.703221 -0.600541
    length 10.1142
    axis -5.41825 36.2925 7.8293 xyz
    dof rx ry rz
  end
  begin
    id 14
    name LeftForeArm
    direction 0.541071 -0.732356 -0.413396
    length 9.39839
    axis 4.65387 33.7604 7.81644 xyz
    dof rx ry rz
  end
  begin
    id 15
    name LeftHand
    direction 0.847511 -0.389379 -0.360707
    length 3.66142
    axis 7.65593 21.1436 -24.6758 xyz
    dof rx ry rz
  end
  begin
    id 16
    name RightShoulderDummy
    direction -0.692546 0.541855 0.476208
    length 2.49352
    axis 42.8809 47.8308 -3.36039 xyz
  end
  begin
    id 17
    name RightShoulder
    direction -0.870808 -0.316653 0.376065
    length 4.48602
    axis 141.571 51.133 -100.254 xyz
    dof rx ry rz
  end
  begin
    id 18
    name RightArm
    direction 0.366897 -0.87275 0.322015
    length 10.1142
    axis 92.3258 71.2036 138.917 xyz
    dof rx ry rz
  end
  begin
    id 19
    name RightForeArm
    direction 0.702487 -0.694568 0.155197
    length 9.39835
    axis 153.863 41.5092 -176.604 xyz
    dof rx ry rz
  end
  begin
    id 20
    name RightHand
    direction 0.79502 -0.601276 0.0800636
    length 3.66142
    axis 154.247 4.59222 142.9 xyz
    dof rx ry rz
  end
  begin
    id 21
    name LeftUpLegDummy
    direction 0.65628 -0.754516 0.00165102
    length 4.76919
    axis 0 0 0 xyz
  end
  begin
    id 22
    name LeftUpLeg
    direction -0.1277 -0.689368 0.713067
    length 17.9961
    axis -48.3385 -17.8675 0.791927 xyz
    dof rx ry rz
  end
  begin
    id 23
    name LeftLeg
    direction 0.109849 -0.991246 -0.0732378
    length 13.3386
    axis -2.05791 -7.30784 1.72042 xyz
    dof rx ry rz
  end
  begin
    id 24
    name LeftFoot
    direction 0.0448355 -0.272614 0.961078
    length 5.86697
    axis -18.7733 -7.89606 10.2113 xyz
    dof rx ry rz
  end
  begin
    id 25
    name LeftToes
    direction -0.18506 0.293668 0.937823
    length 4.75197
    axis 71.2267 -7.89606 10.2113 xyz
    dof rx ry rz
  end
:hierarchy
  begin
    root RightUpLegDummy SpineDummy LeftUpLegDummy
    RightUpLegDummy RightUpLeg
    RightUpLeg RightLeg
    RightLeg RightFoot
    RightFoot RightToes
    SpineDummy Spine
    Spine Spine1
    Spine1 HEadDummy LeftShoulder1Dummy RightShoulderDummy
    HEadDummy HEad
    LeftShoulder1Dummy LeftShoulder1
    LeftShoulder1 LeftArm
    LeftArm LeftForeArm
    LeftForeArm LeftHand
    RightShoulderDummy RightShoulder
    RightShoulder RightArm
    RightArm RightForeArm
    RightForeArm RightHand
    LeftUpLegDummy LeftUpLeg
    LeftUpLeg LeftLeg
    LeftLeg LeftFoot
    LeftFoot LeftToes
  end

:SAMPLES-PER-SECOND 30
:FULLY-SPECIFIED
:DEGREES
43
root  -4.74775 35.3722 -1.73129 164.365 -10.9316 -179.42
RightUpLeg  9.87765 8.79013 17.4763
RightLeg  -63.4269 -21.197 8.99202
RightFoot  9.39312 11.059 -25.8402
RightToes  -1.27222e-014 -6.36111e-015 6.36111e-015
Spine  -23.9671 -25.2335 -17.7838
Spine1  -3.55443 -16.7776 71.4782
HEad  3.17729 -17.9485 -12.6785
LeftShoulder1  6.36111e-015 -1.33558e-015 6.49777e-015
LeftArm  25.2856 -34.7405 -60.6836
LeftForeArm  -17.9627 -45.3286 11.7995
LeftHand  -0.652572 -0.387793 -6.32467
RightShoulder  -4.77083e-015 -6.36111e-015 -3.18055e-015
RightArm  59.894 -35.269 -40.5661
RightForeArm  -3.10913 -7.35213 4.6703
RightHand  2.7586 -4.72665 -11.137
LeftUpLeg  23.2275 5.06447 15.8871
LeftLeg  20.0945 -0.621206 1.96769
LeftFoot  3.28056 2.71315 -8.27336
LeftToes  9.54166e-015 -1.91609e-011 -2.3878e-011
44
root  -4.81552 35.5429 -2.02868 164.857 -6.57109 179.537
RightUpLeg  10.6847 10.1201 17.7523
RightLeg  -63.3606 -19.594 6.83065
RightFoot  9.00643 12.0736 -27.8597
RightToes  -1.27222e-014 -6.36111e-015 6.36111e-015
Spine  -24.5966 -25.1729 -17.843
Spine1  -2.73821 -16.9686 69.0219
HEad  2.68517 -15.9885 -12.281
LeftShoulder1  6.36111e-015 -1.33558e-015 6.49777e-015
LeftArm  26.4532 -36.9743 -61.3095
LeftForeArm  -14.8451 -44.4578 9.89777
LeftHand  -0.903552 -0.849803 -7.67852
RightShoulder  -4.77083e-015 -6.36111e-015 -3.18055e-015
RightArm  57.8501 -36.3652 -31.9148
RightForeArm  -10.9234 -13.9096 -1.14602
RightHand  2.54645 -4.18665 -10.7576
LeftUpLeg  22.2652 4.88255 15.2776
LeftLeg  10.8362 -3.31941 0.0646433
LeftFoot  7.43369 3.02572 -8.25075
LeftToes  9.54166e-015 -1.91609e-011 -2.3878e-011
45
root  -4.97284 36.12 -2.2834 165.794 -1.51801 177.955
RightUpLeg  12.0597 12.5958 17.6659
RightLeg  -66.1742 -17.7438 5.17946
RightFoot  10.6768 12.848 -29.2298
RightToes  -1.27222e-014 -6.36111e-015 6.36111e-015
Spine  -25.9873 -25.1818 -17.3474
Spine1  -1.90011 -17.4094 64.9288
HEad  2.12162 -13.2325 -12.406
LeftShoulder1  6.36111e-015 -1.33558e-015 6.49777e-015
LeftArm  27.9513 -36.6401 -61.5974
LeftForeArm  -10.7404 -44.2816 7.97706
LeftHand  -1.22677 -1.53923 -9.27268
RightShoulder  -4.77083e-015 -6.36111e-015 -3.18055e-015
RightArm  55.4155 -36.8273 -21.7818
RightForeArm  -16.3487 -15.6318 -6.19231
RightHand  1.94723 -2.80726 -9.32286
LeftUpLeg  22.5172 4.64293 13.3418
LeftLeg  2.31121 -7.17179 -1.08343
LeftFoot  13.6075 3.76928 -8.83382
LeftToes  9.54166e-015 -1.91609e-011 -2.3878e-011
46
root  -5.24705 37.0554 -2.5115 166.797 4.78938 176.21
RightUpLeg  14.2773 16.7136 18.1374
RightLeg  -70.8114 -15.4837 2.82697
RightFoot  14.7548 13.4884 -29.9881
RightToes  -1.27222e-014 -6.36111e-015 6.36111e-015
Spine  -27.4771 -24.6001 -16.1238
Spine1  -1.73267 -17.4735 60.23
HEad  2.23484 -9.64738 -13.2263
LeftShoulder1  6.36111e-015 -1.33558e-015 6.49777e-015
LeftArm  29.1871 -33.1269 -60.8978
LeftForeArm  -7.13528 -43.1156 5.86701
LeftHand  -1.32854 -1.70648 -10.076
RightShoulder  -4.77083e-015 -6.36111e-015 -3.18055e-015
RightArm  52.4407 -36.5184 -15.1863
RightForeArm  -16.7278 -8.61464 -8.992
RightHand  1.50695 -1.7193 -8.2356
LeftUpLeg  23.6892 4.69627 10.8871
LeftLeg  -4.26308 -9.57319 -1.18152
LeftFoot  17.3454 4.64384 -9.9858
LeftToes  9.54166e-015 -1.91609e-011 -2.3878e-011
47
root  -5.62311 38.1889 -2.74715 167.978 12.3531 174.362
RightUpLeg  16.5129 22.6018 19.388
RightLeg  -75.9115 -12.9777 -1.39209
RightFoot  21.3895 13.7807 -29.7883
RightToes  -1.27222e-014 -6.36111e-015 6.36111e-015
Spine  -29.017 -23.18 -14.471
Spine1  -2.23744 -16.8893 55.3242
HEad  2.7659 -5.87721 -14.4059
LeftShoulder1  6.36111e-015 -1.33558e-015 6.49777e-015
LeftArm  30.5914 -27.81 -59.3912
LeftForeArm  -5.57893 -39.7179 3.95679
LeftHand  -1.20964 -1.29271 -10.115
RightShoulder  -4.77083e-015 -6.36111e-015 -3.18055e-015
RightArm  49.329 -35.2849 -7.13773
RightForeArm  -16.6092 -1.39305 -12.2525
RightHand  1.21317 -1.053 -7.32452
LeftUpLeg  24.7063 7.14655 9.67598
LeftLeg  -8.83736 -9.85802 -1.0092
LeftFoot  18.7931 5.10549 -10.6274
LeftToes  9.54166e-015 -1.91609e-011 -2.3878e-011
48
root  -6.00557 39.2351 -2.99126 169.186 20.4484 172.405
RightUpLeg  17.2977 27.7682 19.9853
RightLeg  -81.046 -11.7471 -4.37357
RightFoot  29.2241 12.8989 -27.9038
RightToes  -1.27222e-014 -6.36111e-015 6.36111e-015
Spine  -30.3317 -21.6014 -13.3715
Spine1  -2.96593 -15.9575 50.6161
HEad  2.81196 -2.54065 -15.2065
LeftShoulder1  6.36111e-015 -1.33558e-015 6.49777e-015
LeftArm  32.5612 -22.2136 -57.4277
LeftForeArm  -5.66672 -35.4285 2.61614
LeftHand  -1.21432 -1.29372 -10.1798
RightShoulder  -4.77083e-015 -6.36111e-015 -3.18055e-015
RightArm  46.5969 -34.0526 -1.25356
RightForeArm  -17.2124 5.06237 -15.8464
RightHand  0.662968 0.232047 -5.44878
LeftUpLeg  24.9124 12.0291 9.97948
LeftLeg  -11.7217 -10.4951 -0.847519
LeftFoot  20.0431 5.71621 -11.5687
LeftToes  9.54166e-015 -1.91609e-011 -2.3878e-011
49
root  -6.33082 39.9639 -3.22562 169.628 28.4644 170.594
RightUpLeg  15.274 26.89 17.5868
RightLeg  -84.8807 -12.1071 -2.34312
RightFoot  35.2089 11.5624 -25.96
RightToes  -1.27222e-014 -6.36111e-015 6.36111e-015
Spine  -30.6982 -20.4144 -13.2285
Spine1  -3.78556 -14.9788 46.8694
HEad  1.83332 0.611517 -15.1487
LeftShoulder1  6.36111e-015 -1.33558e-015 6.49777e-015
LeftArm  34.9873 -16.8299 -55.0503
LeftForeArm  -5.88445 -32.5179 1.85385
LeftHand  -1.55985 -2.33462 -10.8838
RightShoulder  -4.77083e-015 -6.36111e-015 -3.18055e-015
RightArm  44.0483 -32.8108 2.41247
RightForeArm  -19.1244 10.0074 -19.6425
RightHand  -0.0818569 2.30878 -2.88171
LeftUpLeg  24.9394 16.5836 10.4157
LeftLeg  -13.1575 -12.6836 -0.523037
LeftFoot  20.9181 7.60881 -15.0535
LeftToes  9.54166e-015 -1.91609e-011 -2.3878e-011
50
root  -6.62374 40.2318 -3.45918 168.75 36.4372 169.081
RightUpLeg  11.497 18.4484 13.0855
RightLeg  -85.2467 -13.9383 5.4783
RightFoot  35.4352 11.1339 -25.4424
RightToes  -1.27222e-014 -6.36111e-015 6.36111e-015
Spine  -29.9274 -19.3376 -13.4669
Spine1  -4.54568 -14.0117 43.9333
HEad  0.166803 4.06478 -14.305
LeftShoulder1  6.36111e-015 -1.33558e-015 6.49777e-015
LeftArm  37.8494 -11.8858 -52.5509
LeftForeArm  -5.3727 -31.3783 1.40922
LeftHand  -2.02902 -3.83351 -11.7858
RightShoulder  -4.77083e-015 -6.36111e-015 -3.18055e-015
RightArm  41.2352 -31.0725 5.04494
RightForeArm  -22.2676 13.1389 -23.3401
RightHand  -0.595978 3.91877 -0.861727
LeftUpLeg  25.3456 19.6642 10.7171
LeftLeg  -12.9689 -14.826 -0.284152
LeftFoot  20.6013 10.2164 -20.2393
LeftToes  9.54166e-015 -1.91609e-011 -2.3878e-011
51
root  -6.92822 39.9619 -3.74279 166.784 44.8078 167.537
RightUpLeg  8.62827 10.554 9.90705
RightLeg  -79.8427 -17.7892 12.6334
RightFoot  30.2965 10.3675 -24.5217
RightToes  -1.27222e-014 -6.36111e-015 6.36111e-015
Spine  -28.7982 -17.8465 -13.4865
Spine1  -4.83609 -12.969 40.4438
HEad  -1.04524 7.52553 -12.9538
LeftShoulder1  6.36111e-015 -1.33558e-015 6.49777e-015
LeftArm  41.2664 -7.6011 -50.4691
LeftForeArm  -4.30763 -30.8858 0.993891
LeftHand  -2.30411 -4.76194 -12.2496
RightShoulder  -4.77083e-015 -6.36111e-015 -3.18055e-015
RightArm  38.0294 -28.9904 6.94487
RightForeArm  -26.1314 15.0286 -26.8838
RightHand  -0.74048 4.22648 0.102979
LeftUpLeg  25.9764 22.7325 11.8418
LeftLeg  -10.7853 -14.7764 -0.540445
LeftFoot  19.7858 11.2531 -22.629
LeftToes  9.54166e-015 -1.91609e-011 -2.3878e-011
